<svg width="607" height="697" viewBox="0 0 607 697" fill="none" xmlns="http://www.w3.org/2000/svg">
<path d="M419.947 6.21017C424.617 4.76017 432.497 2.95017 437.447 2.20017C442.397 1.44017 452.077 0.770165 458.947 0.730165C465.817 0.680165 476.177 1.35017 481.947 2.22017C487.717 3.09017 496.277 4.91017 500.947 6.27017C505.617 7.62017 513.047 10.2902 517.447 12.1902C521.847 14.0902 528.767 17.5502 532.827 19.8802C536.887 22.2102 544.307 27.5102 549.327 31.6502C554.377 35.8202 561.417 42.9602 565.097 47.6502C568.747 52.3102 573.577 59.5002 575.807 63.6202C578.047 67.7502 581.257 75.1702 582.947 80.1202C584.627 85.0702 586.677 92.9502 587.487 97.6202C588.297 102.3 588.967 111.3 588.967 117.62C588.967 123.95 588.307 132.95 587.497 137.62C586.687 142.3 584.857 150.17 583.427 155.12C581.997 160.07 579.217 167.72 577.267 172.12C575.307 176.52 571.167 184.29 568.077 189.38C564.977 194.48 562.217 198.63 561.947 198.61C561.677 198.58 560.097 195.57 558.447 191.92C556.797 188.26 553.457 182.54 551.017 179.2C548.577 175.85 544.187 170.76 535.947 162.62L536.947 152.62C537.497 147.12 537.947 139.13 537.937 134.87C537.937 130.61 537.287 122.85 536.497 117.62C535.707 112.39 533.667 103.85 531.957 98.6202C530.247 93.3902 527.007 85.7502 524.747 81.6202C522.497 77.5002 518.727 71.6402 516.387 68.6202C514.047 65.6002 509.497 60.6102 506.287 57.5402C503.077 54.4702 498.647 50.6102 496.447 48.9602C494.247 47.3102 489.747 44.3502 486.447 42.3702C483.147 40.3902 476.847 37.3302 472.447 35.5702C468.047 33.8102 460.177 31.2702 454.947 29.9202C448.217 28.1902 441.517 27.3202 431.947 26.9302C421.767 26.5202 416.107 26.8002 408.947 28.0502C403.717 28.9702 395.177 31.1502 389.947 32.9102C384.717 34.6602 377.967 37.5702 374.947 39.3902C371.927 41.2002 369.337 42.6702 369.197 42.6502C369.057 42.6302 370.467 40.4802 372.337 37.8702C374.197 35.2602 378.367 30.6402 381.617 27.6202C384.857 24.6002 390.197 20.3402 393.477 18.1702C396.757 16.0002 402.147 13.0102 405.447 11.5302C408.747 10.0502 415.277 7.65017 419.947 6.21017Z" fill="#141F2E"/>
<path d="M387.947 41.3902C390.967 40.3202 397.277 38.5902 401.947 37.5402C408.957 35.9702 413.247 35.7102 426.447 36.0502C437.527 36.3402 445.057 37.0802 450.947 38.4402C455.617 39.5302 463.497 42.0502 468.447 44.0502C473.397 46.0502 480.597 49.6502 484.447 52.0402C488.297 54.4302 495.217 59.9302 499.817 64.2502C504.417 68.5802 510.287 75.2702 512.857 79.1202C515.417 82.9702 519.127 89.9502 521.097 94.6202C523.067 99.3002 525.467 106.72 526.427 111.12C527.447 115.77 528.357 125.2 529.057 148.12L523.437 137.62C520.347 131.85 515.267 123.54 512.137 119.17C509.007 114.8 501.947 106.69 496.447 101.15C490.947 95.6102 482.847 88.3702 478.447 85.0602C474.047 81.7502 465.717 76.3902 459.947 73.1502C454.177 69.9102 445.397 65.5702 440.447 63.5202C435.497 61.4702 427.177 58.6402 421.947 57.2402C416.717 55.8302 408.397 53.9902 403.447 53.1402C398.497 52.2902 388.597 51.3102 368.447 50.3402L375.447 46.8402C379.297 44.9102 384.927 42.4602 387.947 41.3902Z" fill="#141F2E"/>
<path d="M408.947 232.7C415.277 231.54 424.947 229.97 430.447 229.22C435.947 228.47 441.567 227.84 442.947 227.82C444.387 227.79 442.897 228.64 439.447 229.8C436.147 230.91 427.147 234.09 419.447 236.87C411.747 239.64 398.927 244.71 390.947 248.13C382.967 251.55 370.147 257.5 362.447 261.36C354.747 265.22 342.367 271.86 334.947 276.13C327.527 280.39 313.117 289.39 302.947 296.13C292.777 302.87 277.247 313.75 268.447 320.32C259.647 326.88 245.927 337.58 237.947 344.11C229.967 350.63 223.217 356.1 222.947 356.28C222.677 356.45 223.797 357.61 225.447 358.84C227.097 360.08 243.217 373.47 261.267 388.6C279.307 403.74 295.507 417.31 300.447 421.4L292.947 425.95C288.827 428.45 279.707 433.23 259.947 442.62L244.697 429.4C236.307 422.12 228.097 414.99 226.447 413.54C224.797 412.09 220.967 408.7 217.947 406.01C214.917 403.32 207.827 397.18 191.947 383.62L183.197 391.54C178.387 395.9 164.517 409.51 152.387 421.79C140.257 434.07 126.657 448.17 113.997 462.12L113.947 250.62L153.027 251.12L152.987 310.37C152.957 349.23 153.287 369.62 153.947 369.62C154.497 369.62 157.537 367.09 160.697 363.99C163.857 360.89 171.397 354.01 177.447 348.7C183.497 343.39 192.047 336.1 196.447 332.51C200.847 328.91 208.947 322.59 214.447 318.47C219.947 314.34 229.847 307.36 236.447 302.96C243.047 298.56 253.617 291.89 259.947 288.15C266.277 284.41 278.427 277.86 286.947 273.59C295.467 269.32 308.297 263.37 315.447 260.35C322.597 257.34 336.547 252.15 346.447 248.83C356.347 245.5 371.867 240.99 380.947 238.8C390.027 236.61 402.617 233.86 408.947 232.7Z" fill="#141F2E"/>
<path d="M423.947 359.75C428.067 359.13 432.567 358.43 433.947 358.2C435.317 357.96 441.397 358 447.447 358.28C453.497 358.57 461.707 359.66 465.697 360.71C469.687 361.76 475.987 364.16 479.697 366.04C483.407 367.92 487.347 370.18 488.447 371.07C490.327 372.58 490.037 372.65 483.947 372.08C480.367 371.74 473.397 371.97 468.447 372.58C463.497 373.19 456.067 374.6 451.947 375.71C447.817 376.83 440.397 379.65 435.447 381.99C430.497 384.32 423.527 388.19 419.947 390.59C416.367 392.99 411.647 396.51 409.447 398.42C407.247 400.33 397.567 409.45 387.947 418.69C378.317 427.92 367.527 437.83 363.947 440.7C360.367 443.57 353.617 448.39 348.947 451.4C344.277 454.41 335.947 459.12 330.447 461.87C324.947 464.62 315.277 468.59 308.947 470.69C302.617 472.79 292.717 475.43 286.947 476.54C281.177 477.66 272.617 479.03 267.947 479.6C263.277 480.16 249.547 480.61 237.447 480.6C225.347 480.59 209.147 479.94 201.447 479.16C193.747 478.37 182.497 477 176.447 476.1C170.397 475.21 163.877 474.1 161.947 473.65C159.097 472.98 159.937 472.8 166.447 472.72C170.847 472.67 180.517 472.16 187.947 471.59C195.367 471.02 206.847 469.65 213.447 468.55C220.047 467.44 230.617 465.23 236.947 463.62C243.277 462.02 251.817 459.55 255.947 458.14C260.067 456.72 268.177 453.46 273.947 450.88C279.717 448.31 288.047 444.22 292.447 441.8C296.847 439.39 304.497 434.69 309.447 431.36C314.397 428.03 321.597 422.82 325.447 419.77C329.297 416.72 337.617 409.66 343.947 404.09C350.277 398.51 359.047 391.23 363.447 387.91C367.847 384.59 373.927 380.31 376.947 378.38C379.967 376.46 385.817 373.19 389.947 371.11C394.067 369.03 401.717 365.88 406.947 364.11C412.177 362.33 419.817 360.37 423.947 359.75Z" fill="#141F2E"/>
<path d="M425.657 404.37C428.787 402.03 434.757 398.44 438.907 396.4C443.047 394.35 446.677 392.66 446.957 392.65C447.247 392.63 446.107 394.98 444.427 397.87C442.747 400.76 440.807 406.04 440.107 409.62C439.147 414.5 439.097 417.37 439.907 421.12C440.497 423.87 442.217 428.24 443.717 430.84C445.217 433.43 448.697 437.9 451.447 440.76C454.197 443.63 459.147 447.7 462.447 449.83C465.747 451.95 471.367 454.78 474.947 456.13C478.527 457.47 484.597 459.33 488.447 460.27C492.897 461.35 501.817 462.18 530.447 463.14L521.947 465.87C517.277 467.38 510.067 469.37 505.947 470.29C500.527 471.51 494.007 471.96 482.447 471.92C468.557 471.87 465.127 471.52 456.447 469.26C450.947 467.83 442.177 464.56 436.947 461.99C429.667 458.41 425.917 455.78 420.897 450.72C416.207 446 413.867 442.7 412.637 439.12C411.697 436.37 410.967 431.87 411.007 429.12C411.057 426.37 411.627 422.69 412.277 420.94C412.917 419.18 414.907 415.7 416.697 413.19C418.487 410.67 422.517 406.71 425.657 404.37Z" fill="#141F2E"/>
<path d="M0.107264 569.22C-0.0827361 545.63 -0.0127361 526.06 0.257264 525.72C0.527264 525.39 3.71726 525.23 13.9473 525.62V549.62C13.9473 562.82 14.2873 573.62 14.6973 573.62C15.1073 573.62 29.2873 562.82 76.9473 525.62L87.4473 525.12C93.2173 524.85 97.9273 524.96 97.8973 525.37C97.8773 525.78 92.2273 530.4 85.3473 535.62C78.4673 540.85 70.2773 547.09 67.1473 549.5C64.0073 551.91 59.8673 555.13 54.4473 559.46L77.0973 583.29C89.5573 596.4 100.637 608.25 103.707 612.12L86.4473 612.75L72.4473 597.95C64.7473 589.8 55.2973 579.7 51.4473 575.49C47.5973 571.28 44.2173 567.79 43.9473 567.72C43.6773 567.66 36.8073 572.79 13.9473 590.62V612.62L0.447264 612.12L0.107264 569.22Z" fill="#141F2E"/>
<path d="M202.947 525.62L206.697 525.37C208.757 525.23 211.797 525.08 216.457 524.94L216.947 612.62L203.447 612.12L202.947 525.62Z" fill="#141F2E"/>
<path d="M315.947 525.62L331.697 525.37C340.357 525.23 364.287 525.19 422.307 525.43L422.447 536.55L399.777 536.83C387.317 536.99 376.737 537.5 376.277 537.95C375.817 538.41 375.387 553.04 375.307 570.45C375.227 587.87 375.117 604.48 374.947 612.62L361.637 612.12L361.537 574.88C361.457 542.76 361.237 537.56 359.947 537.06C359.117 536.74 350.797 536.55 341.447 536.63C332.097 536.72 322.537 536.75 315.947 536.62V525.62Z" fill="#141F2E"/>
<path d="M514.947 525.62L531.697 525.3C540.907 525.13 550.027 525.12 551.947 525.29C553.867 525.46 567.037 525.6 606.947 525.62V537.12H514.947V525.62Z" fill="#141F2E"/>
<path d="M514.877 570.87C514.827 568.81 514.607 566.11 514.377 564.87L513.957 562.62H598.947V574.62H514.947L514.877 570.87Z" fill="#141F2E"/>
<path d="M514.497 606.61C514.177 602.44 514.407 600.5 515.247 600.28C515.907 600.11 536.697 600.07 606.447 600.44L606.947 612.62H514.947L514.497 606.61Z" fill="#141F2E"/>
<path d="M465.947 0.36C462.927 0.55 457.527 0.56 453.947 0.36C450.367 0.17 452.847 0 459.447 0C466.047 0 468.967 0.16 465.947 0.36Z" fill="#A2B3BC"/>
<path d="M431.947 27.36C428.927 27.56 424.197 27.56 421.447 27.36C418.697 27.16 421.177 26.99 426.947 26.99C432.717 26.99 434.967 27.16 431.947 27.36Z" fill="#A2B3BC"/>
<path d="M429.947 35.36C426.367 35.56 420.747 35.56 417.447 35.36C414.147 35.17 417.067 35.01 423.947 35.01C430.827 35.01 433.527 35.17 429.947 35.36Z" fill="#A2B3BC"/>
<path d="M374.197 51.48C370.207 51.56 367.077 51.28 367.237 50.86C367.397 50.44 369.757 50.23 372.487 50.4C375.217 50.57 378.347 50.85 379.447 51.03C380.547 51.2 378.187 51.41 374.197 51.48Z" fill="#A2B3BC"/>
<path d="M246.947 109.62C255.467 108.46 274.597 105.79 289.447 103.69C304.297 101.58 316.897 99.84 317.447 99.81C317.997 99.78 317.547 100.16 316.447 100.66C315.347 101.16 302.077 104.04 286.947 107.06C271.827 110.07 253.147 113.71 245.447 115.14C237.747 116.57 224.027 119.07 214.947 120.7C205.867 122.32 185.847 125.43 170.447 127.6C155.047 129.77 137.047 132.26 130.447 133.12C123.847 133.99 110.007 135.81 99.6974 137.16C89.3874 138.51 80.4274 139.62 79.7774 139.62C79.1374 139.62 78.7974 139.43 79.0274 139.2C79.2574 138.97 86.8774 137.38 95.9474 135.65C105.017 133.93 116.947 131.68 122.447 130.65C127.947 129.63 144.377 126.53 158.947 123.77C173.517 121.01 195.797 117.18 208.447 115.24C221.097 113.31 238.427 110.78 246.947 109.62Z" fill="#A2B3BC"/>
<path d="M589.687 122.62C589.497 126.19 589.327 123.72 589.327 117.12C589.327 110.52 589.487 107.6 589.687 110.62C589.877 113.64 589.887 119.05 589.687 122.62Z" fill="#A2B3BC"/>
<path d="M529.677 139.62C529.467 142.1 529.297 140.3 529.297 135.62C529.297 130.94 529.467 128.92 529.677 131.12C529.887 133.32 529.887 137.14 529.677 139.62Z" fill="#A2B3BC"/>
<path d="M537.677 139.62C537.467 142.1 537.297 140.3 537.297 135.62C537.297 130.94 537.467 128.92 537.677 131.12C537.887 133.32 537.887 137.14 537.677 139.62Z" fill="#A2B3BC"/>
<path d="M323.447 143.64C338.847 140.3 353.927 136.96 356.947 136.21C359.967 135.46 363.347 134.84 364.447 134.83C365.547 134.82 364.427 135.46 361.947 136.24C359.467 137.03 353.397 138.74 348.447 140.04C343.497 141.35 328.867 145.35 315.947 148.93C303.027 152.52 286.147 157.12 278.447 159.16C270.747 161.19 260.617 163.87 255.947 165.12C251.277 166.37 241.367 168.98 233.947 170.92C226.527 172.87 211.677 176.56 200.947 179.13C190.217 181.7 175.597 185.14 168.447 186.78C161.297 188.41 140.377 193.11 121.947 197.23C103.517 201.34 81.9274 206.06 73.9474 207.71C65.9674 209.36 58.0974 210.97 56.4474 211.31C54.7974 211.64 53.6774 211.65 53.9474 211.34C54.2174 211.03 57.8274 209.86 61.9474 208.75C66.0774 207.64 77.9974 204.41 88.4474 201.58C98.8974 198.74 112.177 195.15 117.947 193.6C123.254 192.165 132.63 189.648 139.663 187.759L141.447 187.28C148.597 185.36 168.627 180.18 185.947 175.76C203.277 171.34 230.277 164.76 245.947 161.15C261.617 157.53 279.177 153.47 284.947 152.14C290.717 150.8 308.047 146.97 323.447 143.64Z" fill="#A2B3BC"/>
<path d="M249.447 216.33C256.047 214.07 277.197 207.86 296.447 202.54C315.697 197.21 332.087 192.8 332.867 192.74C333.647 192.67 334.097 192.79 333.867 193C333.637 193.22 325.117 196.42 314.947 200.13C304.777 203.84 291.277 208.64 284.947 210.79C278.617 212.93 267.597 216.44 260.447 218.57C253.297 220.7 241.147 224.1 233.447 226.12C225.747 228.13 215.287 230.87 210.197 232.2C205.107 233.53 200.387 234.6 199.697 234.58C199.007 234.55 207.217 231.37 217.947 227.49C228.677 223.62 242.847 218.6 249.447 216.33Z" fill="#A2B3BC"/>
<path d="M357.447 647.221C359.637 646.041 362.527 645.67 368.107 645.86C374.777 646.09 376.327 646.51 380.047 649.12C382.637 650.94 385.338 654.081 386.888 657.091C389.097 661.38 389.437 663.311 389.407 671.091C389.367 678.63 388.957 680.92 386.907 684.99C385.257 688.26 382.967 690.81 379.947 692.75C377.467 694.34 373.427 695.91 370.947 696.24C368.467 696.57 364.647 696.58 362.447 696.25C360.247 695.92 356.897 694.631 354.997 693.381C353.097 692.141 350.487 689.54 349.197 687.62C347.907 685.7 346.368 682.32 345.768 680.12C345.168 677.92 344.678 673.64 344.678 670.62C344.678 667.59 345.407 662.87 346.297 660.12C347.207 657.29 349.328 653.76 351.178 651.99C352.978 650.26 355.797 648.121 357.447 647.221ZM289.697 645.66C293.687 645.64 297.847 646.07 298.947 646.62C300.437 647.36 300.757 648.15 300.197 649.7C299.607 651.32 298.907 651.63 296.947 651.12C295.577 650.76 293.097 650.22 291.447 649.92C289.797 649.63 286.467 650 284.047 650.75C281.357 651.59 278.357 653.57 276.297 655.87C274.267 658.15 272.728 661.09 272.388 663.37C272.088 665.43 271.638 668.13 271.388 669.37C271.148 670.61 271.397 671.62 271.947 671.62C272.497 671.62 272.938 671.28 272.928 670.87C272.909 670.46 274.828 669.02 277.178 667.681C280.418 665.821 282.887 665.24 287.447 665.25C290.937 665.26 294.697 665.931 296.447 666.851C298.097 667.721 300.428 669.491 301.638 670.771C302.838 672.061 304.378 675.14 305.058 677.62C306.188 681.75 306.097 682.52 303.867 687C302.537 689.68 300.097 692.68 298.447 693.66C296.797 694.65 293.647 695.77 291.447 696.16C289.247 696.54 285.087 696.58 282.197 696.24C278.207 695.77 276.077 694.84 273.317 692.37C271.327 690.58 268.757 687.32 267.607 685.12C265.967 681.96 265.517 679.24 265.487 672.12C265.457 664.27 265.788 662.48 268.098 658.12C269.558 655.37 271.808 652.131 273.098 650.931C274.388 649.721 277.027 648.051 278.947 647.221C280.977 646.341 285.497 645.68 289.697 645.66ZM207.447 645.62C224.927 645.62 224.947 645.62 224.947 647.87C224.957 649.27 222.137 653.22 217.447 658.37C213.329 662.909 209.949 666.838 209.947 667.12C209.947 667.39 211.077 667.62 212.447 667.62C213.827 667.62 216.747 668.52 218.947 669.62C221.147 670.72 223.847 673.08 224.947 674.87C226.037 676.66 226.957 679.7 226.967 681.62C226.987 683.63 226.038 686.581 224.728 688.561C223.478 690.461 220.867 692.931 218.947 694.061C216.137 695.72 213.777 696.11 206.947 696.08C200.347 696.04 197.387 695.54 193.697 693.83C191.087 692.61 188.927 691.06 188.907 690.37C188.877 689.68 189.437 688.57 190.157 687.91C191.177 686.95 192.397 687.161 195.947 688.881C198.537 690.141 202.997 691.221 206.447 691.431C211.487 691.741 213.007 691.41 215.947 689.41C217.867 688.1 219.897 685.81 220.447 684.33C221.114 682.524 221.114 680.737 220.447 678.971C219.897 677.521 218.327 675.46 216.947 674.4C215.547 673.33 211.907 672.191 208.667 671.801C205.487 671.431 202.897 670.78 202.917 670.37C202.937 669.96 202.947 668.95 202.947 668.12C202.948 667.29 206.098 663.24 209.947 659.12C213.797 654.99 216.947 651.39 216.947 651.12C216.943 650.84 210.86 650.62 189.947 650.62V645.62H207.447ZM290.787 670.811C288.777 670.381 285.627 670.301 283.787 670.641C281.947 670.971 279.437 671.781 278.197 672.431C276.957 673.091 275.277 674.97 274.447 676.62C273.617 678.27 272.947 680.29 272.947 681.12C272.947 681.95 273.558 683.86 274.308 685.37C275.118 687 277.348 688.83 279.808 689.87C282.088 690.83 285.067 691.62 286.447 691.62C287.817 691.62 290.827 690.83 293.127 689.87C296.117 688.62 297.687 687.19 298.627 684.87C299.357 683.08 299.708 680.38 299.428 678.87C299.138 677.36 297.898 675.1 296.678 673.86C295.448 672.62 292.797 671.251 290.787 670.811ZM367.947 650.591C366.027 650.611 362.468 651.63 360.058 652.87C357.008 654.43 355.047 656.35 353.688 659.12C352.598 661.32 351.477 665.37 351.197 668.12C350.887 671.18 351.308 675.26 352.268 678.62C353.168 681.76 355.047 685.311 356.647 686.881C358.188 688.401 361.247 690.071 363.447 690.591C366.077 691.221 368.817 691.18 371.447 690.49C373.647 689.91 376.297 688.69 377.337 687.78C378.377 686.87 380.057 684.32 381.067 682.12C382.277 679.48 382.918 675.74 382.938 671.12C382.957 665.8 382.417 663.041 380.707 659.631C379.467 657.161 376.867 654.111 374.947 652.851C372.947 651.541 369.947 650.581 367.947 650.591ZM68.9473 670.62C133.274 670.62 133.947 670.64 133.947 672.62C133.947 674.6 133.277 674.62 68.9473 674.62C4.61726 674.62 3.94727 674.6 3.94727 672.62C3.94733 670.64 4.62024 670.62 68.9473 670.62ZM541.447 669.62C606.274 669.62 606.947 669.64 606.947 671.62C606.947 673.6 606.277 673.62 541.447 673.62C476.617 673.62 475.947 673.6 475.947 671.62C475.947 669.64 476.62 669.62 541.447 669.62ZM424.117 645.62C426.617 645.62 428.647 646.32 429.947 647.62C431.047 648.72 431.977 649.96 432.018 650.37C432.068 650.78 432.288 652.13 432.518 653.37C432.808 654.89 431.997 656.59 430.027 658.62C428.027 660.67 426.127 661.62 424.027 661.62C422.077 661.62 420.027 660.7 418.447 659.12C416.977 657.65 415.867 655.311 415.757 653.431C415.627 651.231 416.298 649.531 417.928 647.931C419.568 646.331 421.457 645.62 424.117 645.62ZM424.058 648.62C423.018 648.62 421.657 649.18 421.037 649.87C420.407 650.56 420.018 652.47 420.178 654.12C420.408 656.65 420.917 657.161 423.447 657.391C425.097 657.551 427.027 657.101 427.737 656.391C428.457 655.691 429.017 654.33 428.987 653.37C428.967 652.41 428.277 650.95 427.447 650.12C426.617 649.29 425.098 648.62 424.058 648.62ZM394.147 433.62C394.587 433.62 394.947 434.74 394.947 436.12C394.947 437.49 395.757 440.76 396.747 443.37C397.727 445.98 400.068 450.14 401.938 452.62C403.797 455.09 407.828 459.28 410.888 461.92C413.948 464.56 420.497 468.72 425.447 471.17C430.397 473.62 437.827 476.7 449.447 480.37L443.447 479.931C440.147 479.691 433.397 479.061 428.447 478.511C423.497 477.971 413.147 476.02 405.447 474.17C397.747 472.33 387.177 469.17 381.947 467.15C376.728 465.141 370.748 462.501 368.678 461.301C366.598 460.101 365.018 458.85 365.178 458.521C365.328 458.19 369.948 454.29 375.447 449.86C380.947 445.43 387.227 439.97 389.397 437.71C391.567 435.46 393.707 433.62 394.147 433.62ZM532.757 175.721C533.227 174.631 533.888 174.861 535.718 176.721C537.008 178.041 540.238 182.271 542.897 186.12C545.547 189.97 548.497 194.92 549.447 197.12C550.397 199.32 551.777 202.92 553.827 209.12L548.138 214.841C545.008 217.981 541.097 221.73 539.447 223.16C537.797 224.6 533.297 227.921 529.447 230.551C525.597 233.181 519.977 236.601 516.947 238.141C513.927 239.691 507.847 242.19 503.447 243.71C499.047 245.23 495.337 246.28 495.197 246.04C495.059 245.808 497.498 242.579 500.627 238.87C503.747 235.16 508.647 228.52 511.527 224.12C514.407 219.72 518.848 211.84 521.397 206.62C523.937 201.39 527.407 192.62 529.087 187.12C530.777 181.621 532.426 176.492 532.757 175.721Z" fill="#286B72"/>
</svg>
